<svg width="60" height="60" viewBox="0 0 60 60" fill="none" xmlns="http://www.w3.org/2000/svg">
<circle cx="29.7552" cy="30.0094" r="29.4085" fill="#EDF2FE"/>
<path d="M36.6695 30.7055C36.6578 28.7023 37.5654 27.1925 39.3983 26.0793C38.3731 24.6106 36.8223 23.8029 34.7779 23.6472C32.8422 23.4945 30.7244 24.7751 29.949 24.7751C29.1295 24.7751 27.2555 23.7001 25.781 23.7001C22.738 23.7471 19.504 26.1263 19.504 30.9669C19.504 32.3974 19.7654 33.8749 20.2883 35.3964C20.9873 37.3996 23.5075 42.3078 26.1364 42.2285C27.511 42.1962 28.4833 41.2533 30.2721 41.2533C32.008 41.2533 32.9069 42.2285 34.4401 42.2285C37.0925 42.1903 39.3718 37.7286 40.0357 35.7195C36.4786 34.0423 36.6695 30.8083 36.6695 30.7055V30.7055ZM33.5824 21.7468C35.0716 19.9785 34.9365 18.3689 34.8925 17.7903C33.5766 17.8666 32.055 18.6861 31.1885 19.6936C30.2339 20.7745 29.6729 22.111 29.7933 23.6178C31.215 23.7265 32.5133 22.9951 33.5824 21.7468V21.7468Z" fill="#14134F"/>
</svg>
