<svg width="175" height="68" viewBox="0 0 175 68" fill="none" xmlns="http://www.w3.org/2000/svg">
<path d="M78.8425 41.5655V27.4494H85.9207C86.6064 27.4494 87.2382 27.5637 87.8163 27.7922C88.4079 28.0073 88.912 28.3098 89.3288 28.6997C89.7455 29.0896 90.0682 29.5601 90.2967 30.1113C90.5387 30.6491 90.6597 31.2406 90.6597 31.8859C90.6597 32.5178 90.5387 33.1026 90.2967 33.6403C90.0682 34.1646 89.7388 34.6217 89.3086 35.0116C88.8918 35.4015 88.3944 35.704 87.8163 35.9191C87.2382 36.1342 86.6064 36.2417 85.9207 36.2417H81.7666V41.5655H78.8425ZM85.5981 29.9701H81.7666V33.8218H85.5981C86.2299 33.8218 86.7341 33.647 87.1105 33.2975C87.5004 32.948 87.6953 32.4841 87.6953 31.9061C87.6953 31.328 87.5004 30.8642 87.1105 30.5146C86.7341 30.1516 86.2299 29.9701 85.5981 29.9701ZM92.3872 41.5655V31.0591H95.1499V32.2085C95.486 31.7515 95.8893 31.4086 96.3599 31.1801C96.8438 30.9381 97.3749 30.8171 97.953 30.8171C98.2218 30.8305 98.4437 30.8574 98.6184 30.8978C98.8066 30.9247 98.968 30.9784 99.1024 31.0591V33.479C98.9008 33.3849 98.6789 33.3177 98.4369 33.2773C98.195 33.2236 97.9462 33.1967 97.6908 33.1967C97.1531 33.1967 96.6556 33.3311 96.1985 33.6C95.7549 33.8689 95.4053 34.2587 95.1499 34.7696V41.5655H92.3872ZM109.505 40.2547C108.859 40.779 108.194 41.1622 107.508 41.4042C106.836 41.6462 106.083 41.7671 105.25 41.7671C104.456 41.7671 103.71 41.626 103.011 41.3437C102.326 41.0613 101.727 40.6782 101.217 40.1942C100.719 39.7102 100.322 39.1389 100.027 38.4801C99.7444 37.8079 99.6033 37.0887 99.6033 36.3224C99.6033 35.5695 99.7377 34.8637 100.007 34.205C100.289 33.5328 100.672 32.9547 101.156 32.4707C101.64 31.9733 102.211 31.5834 102.87 31.3011C103.542 31.0188 104.255 30.8776 105.008 30.8776C105.747 30.8776 106.433 31.0255 107.065 31.3212C107.71 31.6036 108.261 31.9934 108.718 32.4909C109.189 32.9883 109.552 33.5865 109.807 34.2856C110.076 34.9713 110.21 35.7174 110.21 36.524V37.25H102.386C102.574 37.9088 102.937 38.4398 103.475 38.8431C104.013 39.2464 104.645 39.4481 105.371 39.4481C105.828 39.4481 106.258 39.3741 106.661 39.2263C107.065 39.0784 107.407 38.87 107.69 38.6011L109.505 40.2547ZM104.947 33.1563C104.315 33.1563 103.771 33.3513 103.314 33.7411C102.857 34.1176 102.541 34.6284 102.366 35.2738H107.508C107.333 34.6553 107.011 34.1512 106.54 33.7613C106.083 33.358 105.552 33.1563 104.947 33.1563ZM111.903 41.5655V31.0591H114.666V31.8859C115.069 31.5498 115.513 31.2944 115.997 31.1196C116.494 30.9448 117.032 30.8574 117.61 30.8574C118.82 30.8574 119.815 31.2473 120.595 32.0271C121.374 32.8068 121.764 33.8084 121.764 35.0318V41.5655H119.002V35.4351C119.002 34.7763 118.8 34.2453 118.397 33.842C118.007 33.4387 117.482 33.237 116.824 33.237C116.367 33.237 115.95 33.3311 115.573 33.5193C115.21 33.6941 114.908 33.9495 114.666 34.2856V41.5655H111.903ZM123.373 36.3224C123.373 35.5561 123.514 34.8435 123.796 34.1848C124.092 33.5126 124.489 32.9345 124.986 32.4505C125.497 31.9531 126.095 31.5632 126.781 31.2809C127.467 30.9986 128.199 30.8574 128.979 30.8574C129.759 30.8574 130.491 30.9986 131.177 31.2809C131.863 31.5632 132.454 31.9531 132.952 32.4505C133.463 32.9345 133.859 33.5126 134.141 34.1848C134.437 34.8435 134.585 35.5561 134.585 36.3224C134.585 37.0887 134.437 37.8079 134.141 38.4801C133.859 39.1389 133.463 39.7102 132.952 40.1942C132.454 40.6782 131.863 41.0613 131.177 41.3437C130.491 41.626 129.759 41.7671 128.979 41.7671C128.199 41.7671 127.467 41.626 126.781 41.3437C126.095 41.0613 125.497 40.6782 124.986 40.1942C124.489 39.7102 124.092 39.1389 123.796 38.4801C123.514 37.8079 123.373 37.0887 123.373 36.3224ZM128.979 39.3674C129.786 39.3674 130.471 39.0716 131.036 38.4801C131.601 37.8886 131.883 37.1693 131.883 36.3224C131.883 35.462 131.601 34.736 131.036 34.1445C130.471 33.5529 129.786 33.2572 128.979 33.2572C128.172 33.2572 127.487 33.5529 126.922 34.1445C126.357 34.736 126.075 35.462 126.075 36.3224C126.075 37.1693 126.357 37.8886 126.922 38.4801C127.487 39.0716 128.172 39.3674 128.979 39.3674ZM137.203 38.6011V33.3782H135.045V31.0591H137.203V28.377L139.966 27.7519V31.0591H142.95V33.3782H139.966V38.0365C139.966 38.5339 140.073 38.8834 140.288 39.0851C140.504 39.2868 140.88 39.3876 141.418 39.3876C141.673 39.3876 141.915 39.3741 142.144 39.3472C142.372 39.3069 142.621 39.2397 142.89 39.1456V41.4042C142.594 41.4983 142.238 41.5722 141.821 41.626C141.404 41.6932 141.048 41.7268 140.752 41.7268C139.583 41.7268 138.695 41.4647 138.09 40.9404C137.499 40.4026 137.203 39.6228 137.203 38.6011ZM147.646 41.747C146.516 41.747 145.595 41.4512 144.883 40.8597C144.17 40.2547 143.814 39.475 143.814 38.5205C143.814 37.5256 144.197 36.7459 144.963 36.1812C145.73 35.6166 146.785 35.3342 148.129 35.3342C148.56 35.3342 148.99 35.3679 149.42 35.4351C149.85 35.5023 150.274 35.6031 150.691 35.7376V34.9914C150.691 34.3865 150.502 33.9294 150.126 33.6202C149.749 33.3109 149.198 33.1563 148.472 33.1563C148.029 33.1563 147.545 33.2303 147.02 33.3782C146.509 33.5126 145.925 33.7277 145.266 34.0235L144.258 31.9867C145.078 31.6103 145.871 31.328 146.637 31.1398C147.417 30.9515 148.183 30.8574 148.936 30.8574C150.348 30.8574 151.443 31.2003 152.223 31.8859C153.016 32.5581 153.413 33.5126 153.413 34.7494V41.5655H150.691V40.8395C150.247 41.1487 149.776 41.3773 149.279 41.5252C148.795 41.673 148.25 41.747 147.646 41.747ZM146.456 38.46C146.456 38.8633 146.63 39.1859 146.98 39.4279C147.33 39.6565 147.793 39.7707 148.371 39.7707C148.829 39.7707 149.245 39.717 149.622 39.6094C150.012 39.4884 150.368 39.3204 150.691 39.1053V37.5323C150.354 37.3979 149.998 37.3038 149.622 37.25C149.259 37.1828 148.876 37.1492 148.472 37.1492C147.84 37.1492 147.343 37.2702 146.98 37.5122C146.63 37.7407 146.456 38.0566 146.456 38.46ZM155.504 41.5655V31.0591H158.267V32.2085C158.603 31.7515 159.006 31.4086 159.477 31.1801C159.961 30.9381 160.492 30.8171 161.07 30.8171C161.339 30.8305 161.56 30.8574 161.735 30.8978C161.923 30.9247 162.085 30.9784 162.219 31.0591V33.479C162.017 33.3849 161.796 33.3177 161.554 33.2773C161.312 33.2236 161.063 33.1967 160.807 33.1967C160.27 33.1967 159.772 33.3311 159.315 33.6C158.872 33.8689 158.522 34.2587 158.267 34.7696V41.5655H155.504ZM172.621 40.2547C171.976 40.779 171.311 41.1622 170.625 41.4042C169.953 41.6462 169.2 41.7671 168.366 41.7671C167.573 41.7671 166.827 41.626 166.128 41.3437C165.442 41.0613 164.844 40.6782 164.333 40.1942C163.836 39.7102 163.439 39.1389 163.143 38.4801C162.861 37.8079 162.72 37.0887 162.72 36.3224C162.72 35.5695 162.854 34.8637 163.123 34.205C163.406 33.5328 163.789 32.9547 164.273 32.4707C164.757 31.9733 165.328 31.5834 165.987 31.3011C166.659 31.0188 167.372 30.8776 168.124 30.8776C168.864 30.8776 169.549 31.0255 170.181 31.3212C170.827 31.6036 171.378 31.9934 171.835 32.4909C172.305 32.9883 172.668 33.5865 172.924 34.2856C173.193 34.9713 173.327 35.7174 173.327 36.524V37.25H165.503C165.691 37.9088 166.054 38.4398 166.592 38.8431C167.13 39.2464 167.761 39.4481 168.487 39.4481C168.944 39.4481 169.375 39.3741 169.778 39.2263C170.181 39.0784 170.524 38.87 170.806 38.6011L172.621 40.2547ZM168.064 33.1563C167.432 33.1563 166.888 33.3513 166.43 33.7411C165.973 34.1176 165.657 34.6284 165.483 35.2738H170.625C170.45 34.6553 170.128 34.1512 169.657 33.7613C169.2 33.358 168.669 33.1563 168.064 33.1563Z" fill="#14134F"/>
<circle cx="33.8794" cy="34.0094" r="32.3493" stroke="black" stroke-width="2.52073"/>
<path d="M32.1483 44.1041V50.9505H27.1575L27.1575 18.5856H32.1483V24.1872L32.1483 44.1041Z" fill="black"/>
<path d="M32.9886 25.1597V18.3133C38.624 18.7893 41.4792 19.9085 45.4367 25.1597C47.5496 29.0414 47.4728 31.1823 45.4367 34.9937C41.0622 40.3135 38.318 41.4917 32.9886 40.5953L32.9886 34.9937C43.122 31.0686 43.122 27.2875 32.9886 25.1597Z" fill="black"/>
</svg>
