<svg width="60" height="60" viewBox="0 0 60 60" fill="none" xmlns="http://www.w3.org/2000/svg">
<circle cx="29.7724" cy="30.0094" r="29.4085" fill="#EDF2FE"/>
<path d="M36.2506 34.387L32.4216 30.5463L19.6264 43.4533C19.7806 43.4067 19.9442 43.3361 20.119 43.2399C20.2498 43.1681 20.5682 42.9936 21.0362 42.7373L21.0641 42.722C23.6976 41.2793 30.9283 37.318 36.2506 34.387Z" fill="#14134F"/>
<path d="M36.9779 33.9864C37.4705 33.7151 37.9426 33.4547 38.3885 33.2087C38.7046 33.0344 39.0075 32.8673 39.2954 32.7086L39.297 32.7077C41.0854 31.722 42.2909 31.0576 42.4355 30.9856C43.1036 30.6292 43.7938 29.6863 42.4355 28.954C42.0149 28.7331 39.8258 27.5291 36.9748 25.9533L32.9833 29.9796L36.9779 33.9864Z" fill="#14134F"/>
<path d="M36.2344 25.5668C33.8691 24.273 20.973 17.2191 20.1187 16.7635C19.9564 16.6667 19.7836 16.6016 19.6097 16.5655L32.42 29.4146L36.2344 25.5668Z" fill="#14134F"/>
<path d="M18.6304 16.7133L31.8582 29.9812L18.581 43.3745C18.2056 43.1207 18.009 42.59 18.009 41.9198V18.1443C18.009 17.4031 18.2696 16.9471 18.6304 16.7133Z" fill="#14134F"/>
</svg>
