<svg width="156" height="139" viewBox="0 0 156 139" fill="none" xmlns="http://www.w3.org/2000/svg">
<path d="M102.445 113.107V102.677M97.2299 107.892H107.66H97.2299Z" stroke="#8BD2BD" stroke-width="0.840243" stroke-miterlimit="10"/>
<path d="M102.445 87.4325V77.0021M97.2299 82.2173H107.66H97.2299Z" stroke="#8BD2BD" stroke-width="0.840243" stroke-miterlimit="10"/>
<path d="M102.445 62.5601V52.1298M97.2298 57.3449H107.66H97.2298Z" stroke="#8BD2BD" stroke-width="0.840243" stroke-miterlimit="10"/>
<path d="M102.445 113.107V102.677M97.2299 107.892H107.66H97.2299Z" stroke="#1D262D" stroke-width="1.68049" stroke-miterlimit="10"/>
<path d="M102.445 87.4325V77.0021M97.2299 82.2173H107.66H97.2299Z" stroke="#1D262D" stroke-width="1.68049" stroke-miterlimit="10"/>
<path d="M102.445 62.5601V52.1298M97.2298 57.3449H107.66H97.2298Z" stroke="#1D262D" stroke-width="1.68049" stroke-miterlimit="10"/>
<path d="M78.3749 113.107V102.677M73.1598 107.892H83.5901H73.1598Z" stroke="#8BD2BD" stroke-width="0.840243" stroke-miterlimit="10"/>
<path d="M78.3749 87.4325V77.0021M73.1598 82.2173H83.5901H73.1598Z" stroke="#8BD2BD" stroke-width="0.840243" stroke-miterlimit="10"/>
<path d="M78.3745 62.5601V52.1298M73.1593 57.3449H83.5897H73.1593Z" stroke="#8BD2BD" stroke-width="0.840243" stroke-miterlimit="10"/>
<path d="M78.3749 113.107V102.677M73.1598 107.892H83.5901H73.1598Z" stroke="#1D262D" stroke-width="1.68049" stroke-miterlimit="10"/>
<path d="M78.3749 87.4325V77.0021M73.1598 82.2173H83.5901H73.1598Z" stroke="#1D262D" stroke-width="1.68049" stroke-miterlimit="10"/>
<path d="M78.3745 62.5601V52.1298M73.1593 57.3449H83.5897H73.1593Z" stroke="#1D262D" stroke-width="1.68049" stroke-miterlimit="10"/>
<path d="M54.3048 87.4325V77.0021M49.0896 82.2173H59.52H49.0896Z" stroke="#8BD2BD" stroke-width="0.840243" stroke-miterlimit="10"/>
<path d="M54.3044 62.5601V52.1298M49.0892 57.3449H59.5196H49.0892Z" stroke="#8BD2BD" stroke-width="0.840243" stroke-miterlimit="10"/>
<path d="M54.3048 87.4325V77.0021M49.0896 82.2173H59.52H49.0896Z" stroke="#1D262D" stroke-width="1.68049" stroke-miterlimit="10"/>
<path d="M54.3044 62.5601V52.1298M49.0892 57.3449H59.5196H49.0892Z" stroke="#1D262D" stroke-width="1.68049" stroke-miterlimit="10"/>
<path d="M30.2348 87.4325V77.0021M25.0196 82.2173H35.45H25.0196Z" stroke="#8BD2BD" stroke-width="0.840243" stroke-miterlimit="10"/>
<path d="M30.2347 62.5601V52.1298M25.0195 57.3449H35.4499H25.0195Z" stroke="#8BD2BD" stroke-width="0.840243" stroke-miterlimit="10"/>
<path d="M30.2348 87.4325V77.0021M25.0196 82.2173H35.45H25.0196Z" stroke="#1D262D" stroke-width="1.68049" stroke-miterlimit="10"/>
<path d="M30.2347 62.5601V52.1298M25.0195 57.3449H35.4499H25.0195Z" stroke="#1D262D" stroke-width="1.68049" stroke-miterlimit="10"/>
<path d="M6.16457 87.4325V77.0021M0.949378 82.2173H11.3798H0.949378Z" stroke="#8BD2BD" stroke-width="0.840243" stroke-miterlimit="10"/>
<path d="M6.16449 62.5601V52.1298M0.949302 57.3449H11.3797H0.949302Z" stroke="#8BD2BD" stroke-width="0.840243" stroke-miterlimit="10"/>
<path d="M6.16457 87.4325V77.0021M0.949378 82.2173H11.3798H0.949378Z" stroke="#1D262D" stroke-width="1.68049" stroke-miterlimit="10"/>
<path d="M6.16449 62.5601V52.1298M0.949302 57.3449H11.3797H0.949302Z" stroke="#1D262D" stroke-width="1.68049" stroke-miterlimit="10"/>
<path d="M102.445 138.315V127.884M97.2299 133.099H107.66H97.2299Z" stroke="#8BD2BD" stroke-width="0.840243" stroke-miterlimit="10"/>
<path d="M102.445 112.64V102.209M97.2299 107.425H107.66H97.2299Z" stroke="#8BD2BD" stroke-width="0.840243" stroke-miterlimit="10"/>
<path d="M102.445 87.7674V77.337M97.2298 82.5522H107.66H97.2298Z" stroke="#8BD2BD" stroke-width="0.840243" stroke-miterlimit="10"/>
<path d="M102.445 138.315V127.884M97.2299 133.099H107.66H97.2299Z" stroke="#1D262D" stroke-width="1.68049" stroke-miterlimit="10"/>
<path d="M102.445 112.64V102.209M97.2299 107.425H107.66H97.2299Z" stroke="#1D262D" stroke-width="1.68049" stroke-miterlimit="10"/>
<path d="M102.445 87.7674V77.337M97.2298 82.5522H107.66H97.2298Z" stroke="#1D262D" stroke-width="1.68049" stroke-miterlimit="10"/>
<path d="M78.3749 138.315V127.884M73.1598 133.099H83.5901H73.1598Z" stroke="#8BD2BD" stroke-width="0.840243" stroke-miterlimit="10"/>
<path d="M78.3749 112.64V102.209M73.1598 107.425H83.5901H73.1598Z" stroke="#8BD2BD" stroke-width="0.840243" stroke-miterlimit="10"/>
<path d="M78.3745 87.7674V77.337M73.1593 82.5522H83.5897H73.1593Z" stroke="#8BD2BD" stroke-width="0.840243" stroke-miterlimit="10"/>
<path d="M78.3749 138.315V127.884M73.1598 133.099H83.5901H73.1598Z" stroke="#1D262D" stroke-width="1.68049" stroke-miterlimit="10"/>
<path d="M78.3749 112.64V102.209M73.1598 107.425H83.5901H73.1598Z" stroke="#1D262D" stroke-width="1.68049" stroke-miterlimit="10"/>
<path d="M78.3745 87.7674V77.337M73.1593 82.5522H83.5897H73.1593Z" stroke="#1D262D" stroke-width="1.68049" stroke-miterlimit="10"/>
<path d="M54.3048 112.64V102.209M49.0896 107.425H59.52H49.0896Z" stroke="#8BD2BD" stroke-width="0.840243" stroke-miterlimit="10"/>
<path d="M54.3044 87.7674V77.337M49.0892 82.5522H59.5196H49.0892Z" stroke="#8BD2BD" stroke-width="0.840243" stroke-miterlimit="10"/>
<path d="M54.3048 112.64V102.209M49.0896 107.425H59.52H49.0896Z" stroke="#1D262D" stroke-width="1.68049" stroke-miterlimit="10"/>
<path d="M54.3044 87.7674V77.337M49.0892 82.5522H59.5196H49.0892Z" stroke="#1D262D" stroke-width="1.68049" stroke-miterlimit="10"/>
<path d="M30.2348 112.64V102.209M25.0196 107.425H35.45H25.0196Z" stroke="#8BD2BD" stroke-width="0.840243" stroke-miterlimit="10"/>
<path d="M30.2347 87.7674V77.337M25.0195 82.5522H35.4499H25.0195Z" stroke="#8BD2BD" stroke-width="0.840243" stroke-miterlimit="10"/>
<path d="M30.2348 112.64V102.209M25.0196 107.425H35.45H25.0196Z" stroke="#1D262D" stroke-width="1.68049" stroke-miterlimit="10"/>
<path d="M30.2347 87.7674V77.337M25.0195 82.5522H35.4499H25.0195Z" stroke="#1D262D" stroke-width="1.68049" stroke-miterlimit="10"/>
<path d="M6.16457 112.64V102.209M0.949378 107.425H11.3798H0.949378Z" stroke="#8BD2BD" stroke-width="0.840243" stroke-miterlimit="10"/>
<path d="M6.16449 87.7674V77.337M0.949302 82.5522H11.3797H0.949302Z" stroke="#8BD2BD" stroke-width="0.840243" stroke-miterlimit="10"/>
<path d="M6.16457 112.64V102.209M0.949378 107.425H11.3798H0.949378Z" stroke="#1D262D" stroke-width="1.68049" stroke-miterlimit="10"/>
<path d="M6.16449 87.7674V77.337M0.949302 82.5522H11.3797H0.949302Z" stroke="#1D262D" stroke-width="1.68049" stroke-miterlimit="10"/>
<path d="M150.339 61.0122V50.5818M145.124 55.797H155.554H145.124Z" stroke="#8BD2BD" stroke-width="0.840243" stroke-miterlimit="10"/>
<path d="M150.339 35.3374V24.907M145.124 30.1222H155.554H145.124Z" stroke="#8BD2BD" stroke-width="0.840243" stroke-miterlimit="10"/>
<path d="M150.339 10.4651V0.0346985M145.124 5.24989H155.554H145.124Z" stroke="#8BD2BD" stroke-width="0.840243" stroke-miterlimit="10"/>
<path d="M150.339 61.0122V50.5818M145.124 55.797H155.554H145.124Z" stroke="#1D262D" stroke-width="1.68049" stroke-miterlimit="10"/>
<path d="M150.339 35.3374V24.907M145.124 30.1222H155.554H145.124Z" stroke="#1D262D" stroke-width="1.68049" stroke-miterlimit="10"/>
<path d="M150.339 10.4651V0.0346985M145.124 5.24989H155.554H145.124Z" stroke="#1D262D" stroke-width="1.68049" stroke-miterlimit="10"/>
<path d="M126.269 61.0122V50.5818M121.054 55.797H131.484H121.054Z" stroke="#8BD2BD" stroke-width="0.840243" stroke-miterlimit="10"/>
<path d="M126.269 35.3374V24.907M121.054 30.1222H131.484H121.054Z" stroke="#8BD2BD" stroke-width="0.840243" stroke-miterlimit="10"/>
<path d="M126.268 10.4651V0.0346985M121.053 5.24989H131.484H121.053Z" stroke="#8BD2BD" stroke-width="0.840243" stroke-miterlimit="10"/>
<path d="M126.269 61.0122V50.5818M121.054 55.797H131.484H121.054Z" stroke="#1D262D" stroke-width="1.68049" stroke-miterlimit="10"/>
<path d="M126.269 35.3374V24.907M121.054 30.1222H131.484H121.054Z" stroke="#1D262D" stroke-width="1.68049" stroke-miterlimit="10"/>
<path d="M126.268 10.4651V0.0346985M121.053 5.24989H131.484H121.053Z" stroke="#1D262D" stroke-width="1.68049" stroke-miterlimit="10"/>
<path d="M102.199 35.3374V24.907M96.9834 30.1222H107.414H96.9834Z" stroke="#8BD2BD" stroke-width="0.840243" stroke-miterlimit="10"/>
<path d="M102.198 10.4651V0.0346985M96.983 5.24989H107.413H96.983Z" stroke="#8BD2BD" stroke-width="0.840243" stroke-miterlimit="10"/>
<path d="M102.199 35.3374V24.907M96.9834 30.1222H107.414H96.9834Z" stroke="#1D262D" stroke-width="1.68049" stroke-miterlimit="10"/>
<path d="M102.198 10.4651V0.0346985M96.983 5.24989H107.413H96.983Z" stroke="#1D262D" stroke-width="1.68049" stroke-miterlimit="10"/>
<path d="M78.1286 35.3374V24.907M72.9134 30.1222H83.3438H72.9134Z" stroke="#8BD2BD" stroke-width="0.840243" stroke-miterlimit="10"/>
<path d="M78.1284 10.4651V0.0346985M72.9132 5.24989H83.3436H72.9132Z" stroke="#8BD2BD" stroke-width="0.840243" stroke-miterlimit="10"/>
<path d="M78.1286 35.3374V24.907M72.9134 30.1222H83.3438H72.9134Z" stroke="#1D262D" stroke-width="1.68049" stroke-miterlimit="10"/>
<path d="M78.1284 10.4651V0.0346985M72.9132 5.24989H83.3436H72.9132Z" stroke="#1D262D" stroke-width="1.68049" stroke-miterlimit="10"/>
<path d="M54.0584 35.3374V24.907M48.8432 30.1222H59.2735H48.8432Z" stroke="#8BD2BD" stroke-width="0.840243" stroke-miterlimit="10"/>
<path d="M54.0583 10.4651V0.0346985M48.8431 5.24989H59.2735H48.8431Z" stroke="#8BD2BD" stroke-width="0.840243" stroke-miterlimit="10"/>
<path d="M54.0584 35.3374V24.907M48.8432 30.1222H59.2735H48.8432Z" stroke="#1D262D" stroke-width="1.68049" stroke-miterlimit="10"/>
<path d="M54.0583 10.4651V0.0346985M48.8431 5.24989H59.2735H48.8431Z" stroke="#1D262D" stroke-width="1.68049" stroke-miterlimit="10"/>
</svg>
